Coordinates
version=1
nRows=9
nColumns=36
inDegrees=yes

Units are S.I. units (second, meters, Newtons, ...)
If the header above contains a line with 'inDegrees', this indicates whether rotational values are in degrees (yes) or radians (no).

endheader
time	pelvis_tilt	pelvis_list	pelvis_rotation	pelvis_tx	pelvis_ty	pelvis_tz	hip_flexion_r	hip_adduction_r	hip_rotation_r	knee_angle_r	knee_angle_r_beta	ankle_angle_r	subtalar_angle_r	mtp_angle_r	hip_flexion_l	hip_adduction_l	hip_rotation_l	knee_angle_l	knee_angle_l_beta	ankle_angle_l	subtalar_angle_l	mtp_angle_l	lumbar_extension	lumbar_bending	lumbar_rotation	arm_flex_r	arm_add_r	arm_rot_r	elbow_flex_r	pro_sup_r	arm_flex_l	arm_add_l	arm_rot_l	elbow_flex_l	pro_sup_l
      0.00000000	     -4.22908850	     -0.87942663	     -0.99519570	     -0.10891347	      0.95558924	     -0.53428855	     -0.57137002	      0.01396412	      0.75493651	      1.71133042	      0.02986835	      8.72230384	     -3.96719234	     -4.52083199	      5.13118230	    -11.11139572	     -8.98775579	     10.81057170	      0.18868007	      4.44142037	     -1.67508591	     -4.52083199	     -1.21590683	      2.77278185	      2.22395945	      1.58431574	     -4.68712143	     -4.33899921	     29.64019674	    109.83338903	      4.99282593	     -1.93153271	      4.26104456	     23.98593980	    106.67027269
      0.01000000	     -4.24475685	     -0.88974366	     -1.00994128	     -0.10896147	      0.95556633	     -0.53427658	     -0.55704595	      0.03043673	      0.80089264	      1.69707305	      0.02961951	      8.72759774	     -3.98543441	     -5.33230721	      5.15312894	    -11.12671803	     -9.00266462	     10.81933772	      0.18883307	      4.44260660	     -1.70165641	     -5.33230721	     -1.19527866	      2.78715002	      2.31495397	      1.53059993	     -4.65178006	     -4.73897035	     29.67832533	    110.34156394	      5.06658462	     -1.94956577	      4.60061940	     23.90313445	    106.14698956
      0.02000000	     -4.23356107	     -0.89049656	     -0.99748698	     -0.10899079	      0.95558821	     -0.53436248	     -0.54736465	      0.02170714	      0.63382971	      1.73549414	      0.03029009	      8.85532035	     -3.72728152	     -5.92332781	      5.13230150	    -11.11379839	     -8.95391340	     10.78700854	      0.18826882	      4.42393124	     -1.76122063	     -5.92332781	     -1.18880245	      2.78774322	      2.23727272	      1.59436502	     -4.70885127	     -4.38481719	     29.55342045	    110.36137078	      5.01248582	     -1.97896419	      4.54883246	     23.92519098	    106.27897030
      0.03000000	     -4.19568525	     -0.91801427	     -1.00874445	     -0.10906645	      0.95561094	     -0.53437926	     -0.57810773	      0.05189308	      0.66598321	      1.74144195	      0.03039390	      8.81058930	     -3.81145176	     -6.54729124	      5.10713960	    -11.14693513	     -8.96746798	     10.82320775	      0.18890061	      4.40666010	     -1.79052841	     -6.54729124	     -1.24578970	      2.82459158	      2.28607876	      1.60289586	     -4.72364300	     -4.47166721	     29.57161531	    110.42711232	      5.03064349	     -1.97808610	      4.50086787	     23.97588734	    106.42939123
      0.04000000	     -4.21015584	     -0.92136245	     -0.87353663	     -0.10899606	      0.95553726	     -0.53463416	     -0.46522877	      0.01320629	     -0.24578565	      1.97511329	      0.03447223	      9.96387499	     -2.05923895	     -6.62627115	      5.21198365	    -11.14617638	     -8.82627306	     10.94835251	      0.19108480	      4.56712767	     -1.57348673	     -6.62627115	     -1.15854589	      2.83350842	      2.14849632	      1.68415630	     -4.63550462	     -4.38492896	     29.52093872	    105.36166651	      5.06704187	     -1.84389993	      4.30275029	     24.13027841	    102.46400953
      0.05000000	     -4.18594619	     -0.92829841	     -1.01515696	     -0.10912350	      0.95561609	     -0.53442819	     -0.57935794	      0.06144538	      0.66493055	      1.75041296	      0.03055047	      8.75307622	     -3.83535099	     -6.85629564	      5.09280263	    -11.15587007	     -8.97965229	     10.81305411	      0.18872340	      4.43722122	     -1.77534940	     -6.85629564	     -1.23889161	      2.85902727	      2.30097623	      1.60516547	     -4.74267961	     -4.53802683	     29.60190387	    110.29551002	      5.06026026	     -1.98742186	      4.65808903	     23.92898087	    106.03852920
      0.06000000	     -4.19410172	     -0.96115491	     -1.03597069	     -0.10920087	      0.95562234	     -0.53441213	     -0.57596034	      0.10660464	      0.80045342	      1.72099873	      0.03003709	      8.60072146	     -4.13364820	     -6.99070279	      5.11781716	    -11.20863807	     -9.06826277	     10.85267742	      0.18941495	      4.52830602	     -1.61139696	     -6.99070279	     -1.22550547	      2.90026162	      2.39094591	      1.56705282	     -4.78902758	     -4.49526814	     29.65672405	    109.88571552	      5.12582841	     -2.00333586	      4.98754401	     23.86695995	    105.71075782
      0.07000000	     -4.21068292	     -0.97194256	     -1.03766726	     -0.10925940	      0.95562960	     -0.53447788	     -0.52388522	      0.10870022	      0.68164898	      1.77408297	      0.03096359	      8.68416634	     -3.91460382	     -7.11199330	      5.13782167	    -11.20654079	     -8.99876996	     10.84700825	      0.18931601	      4.49279035	     -1.72977078	     -7.11199330	     -1.19726658	      2.93105372	      2.37516816	      1.57576377	     -4.86847174	     -4.26594850	     29.64758540	    110.11715325	      5.12205382	     -2.01035711	      5.00070386	     23.84377328	    105.91332156
      0.08000000	     -4.19693277	     -0.97396325	     -1.04343855	     -0.10933381	      0.95568815	     -0.53452974	     -0.51360609	      0.11000344	      0.63997646	      1.80521476	      0.03150694	      8.72478355	     -3.86077223	     -7.21831434	      5.11948570	    -11.19913846	     -8.98907015	     10.82906875	      0.18900290	      4.44689833	     -1.75487187	     -7.21831434	     -1.22225570	      2.95946422	      2.31706455	      1.60913403	     -4.94757999	     -4.04223536	     29.69442469	    110.14742093	      5.10300685	     -1.98488317	      4.72369449	     23.88599488	    106.01812227
